<svg width="104" height="101" viewBox="0 0 104 101" fill="none" xmlns="http://www.w3.org/2000/svg">
<path d="M17.3765 93.8745C14.5811 91.8753 13.9033 87.9809 15.8569 85.1423L30.4591 63.9241C32.8498 60.4504 31.2362 55.6364 27.245 54.3351L4.8542 47.0347C1.60564 45.9755 -0.199733 42.4866 0.797993 39.1959L2.91738 32.2058C3.97263 28.7254 7.72505 26.8662 11.1043 28.1494L32.9461 36.4437C37.1048 38.0229 41.5254 34.8499 41.4037 30.3729L40.7682 6.9991C40.6718 3.45174 43.499 0.523438 47.0204 0.523438H56.0265C59.5479 0.523438 62.3751 3.45174 62.2787 6.99909L61.6432 30.3729C61.5215 34.8499 65.942 38.0229 70.1008 36.4437L91.9426 28.1494C95.3218 26.8662 99.0743 28.7254 100.13 32.2058L102.249 39.1959C103.247 42.4866 101.441 45.9755 98.1927 47.0347L75.8931 54.3054C71.875 55.6155 70.2736 60.4794 72.7178 63.9502L87.5753 85.0486C89.5955 87.9174 88.8945 91.8974 86.018 93.8904L79.4895 98.4136C76.5853 100.426 72.6056 99.6236 70.6929 96.6404L56.9817 75.2558C54.5335 71.4373 49.0011 71.4073 46.5121 75.1989L32.4268 96.6563C30.4767 99.627 26.473 100.38 23.5906 98.3188L17.3765 93.8745Z" stroke="black" stroke-width="1.04642"/>
</svg>
