<svg width="102" height="99" viewBox="0 0 102 99" fill="none" xmlns="http://www.w3.org/2000/svg">
<path d="M16.853 93.3511C14.0576 91.3518 13.3799 87.4575 15.3334 84.6189L29.9357 63.4007C32.3263 59.9269 30.7127 55.113 26.7215 53.8117L4.33077 46.5113C1.0822 45.4521 -0.723171 41.9631 0.274555 38.6724L2.39395 31.6823C3.44919 28.2019 7.20161 26.3427 10.5809 27.626L32.4227 35.9202C36.5814 37.4995 41.0019 34.3264 40.8802 29.8494L40.2448 6.47566C40.1483 2.92831 42.9756 0 46.4969 0H55.5031C59.0244 0 61.8517 2.9283 61.7552 6.47565L61.1198 29.8494C60.9981 34.3264 65.4186 37.4995 69.5773 35.9202L91.4192 27.626C94.7984 26.3427 98.5508 28.2019 99.6061 31.6823L101.725 38.6725C102.723 41.9631 100.918 45.4521 97.6692 46.5113L75.3696 53.782C71.3515 55.092 69.7502 59.956 72.1943 63.4268L87.0518 84.5252C89.072 87.394 88.371 91.374 85.4946 93.3669L78.9661 97.8902C76.0618 99.9024 72.0821 99.1002 70.1694 96.117L56.4583 74.7323C54.01 70.9139 48.4776 70.8838 45.9887 74.6755L31.9033 96.1328C29.9532 99.1036 25.9496 99.8569 23.0672 97.7954L16.853 93.3511Z" fill="black"/>
</svg>
