<svg width="77" height="56" viewBox="0 0 77 56" fill="none" xmlns="http://www.w3.org/2000/svg">
<path d="M8.65997 0.604689C6.65511 -0.552816 4.1208 -0.0392081 3.1917 2.07852C1.09039 6.86811 0.00613284 12.3407 0.000758913 17.6023C-0.00605601 24.2643 1.78458 30.9754 5.1029 36.7563C8.42123 42.5371 13.2864 47.2355 19.0456 50.5948C24.8049 53.9541 31.336 55.7077 38.0015 55.7503C44.667 55.7929 51.3449 53.8774 57.1405 50.5919C62.9361 47.3064 67.6128 42.3314 70.9942 36.5934C74.3755 30.8553 76.1243 24.2581 76.1904 17.5964C76.2426 12.3352 75.096 7.86279 73.0473 3.04669C72.1414 0.917241 69.3689 -0.215871 67.3515 0.91594L39.9639 16.3626C38.6744 17.0861 37.6456 17.3396 36.3641 16.5997L8.65997 0.604689Z" fill="black"/>
</svg>
