<svg width="77" height="70" viewBox="0 0 77 70" fill="none" xmlns="http://www.w3.org/2000/svg">
<path d="M69.0102 34.3453C68.5504 33.8856 67.805 33.8856 67.3453 34.3453L59.8535 41.8371C59.3938 42.2968 59.3938 43.0422 59.8535 43.5019C60.3133 43.9617 61.0586 43.9617 61.5184 43.5019L68.1777 36.8426L74.8371 43.5019C75.2968 43.9617 76.0422 43.9617 76.5019 43.5019C76.9617 43.0422 76.9617 42.2968 76.5019 41.8371L69.0102 34.3453ZM35.1777 2.35495C35.8279 2.35495 36.355 1.8279 36.355 1.17773C36.355 0.527574 35.8279 0.000514388 35.1777 0.000514388V1.17773V2.35495ZM68.1777 35.1777H67.0005C67.0005 53.0291 53.0291 67.0005 35.1777 67.0005V68.1777V69.355C54.3294 69.355 69.355 54.3294 69.355 35.1777H68.1777ZM35.1777 68.1777V67.0005C17.2801 67.0005 2.35495 52.9838 2.35495 35.1777H1.17773H0.000514388C0.000514388 54.3747 16.0723 69.355 35.1777 69.355V68.1777ZM1.17773 35.1777H2.35495C2.35495 17.3264 17.3264 2.35495 35.1777 2.35495V1.17773V0.000514388C16.026 0.000514388 0.000514388 16.026 0.000514388 35.1777H1.17773Z" fill="black"/>
</svg>
