<svg width="82" height="81" viewBox="0 0 82 81" fill="none" xmlns="http://www.w3.org/2000/svg">
<path d="M35.0306 2.49451C38.1935 -0.831503 43.8065 -0.831503 46.9694 2.49451L53.9338 9.49298C55.2692 10.8973 56.9918 12.3102 58.9083 12.4923L67.8624 13.4921C72.4014 13.9235 75.4216 17.9113 74.8267 22.4901L73.8318 32.488C73.5807 34.4212 73.7724 35.8555 74.8267 37.4869L80.7962 45.4851C83.2932 49.3491 81.7162 55.0988 77.8114 57.4825L69.8522 62.4814C68.2036 63.4879 66.4743 64.6283 65.8726 66.4806L62.8879 75.4786C61.4627 79.8655 57.2131 82.0839 52.9388 80.4775L43.9847 77.4782C42.1801 76.7999 39.8199 76.7999 38.0153 77.4782L29.0612 80.4775C24.7869 82.0839 20.5373 79.8655 19.1121 75.4786L16.1274 66.4806C15.5257 64.6283 13.7964 63.4879 12.1478 62.4814L4.18855 57.4825C0.283845 55.0988 -1.29323 49.3491 1.20384 45.4851L7.17327 37.4869C8.22757 35.8555 8.41933 34.4212 8.16817 32.488L7.17327 22.4901C6.57841 17.9113 9.59862 13.9235 14.1376 13.4921L23.0917 12.4923C25.0082 12.3102 26.7308 10.8973 28.0662 9.49298L35.0306 2.49451Z" fill="black"/>
</svg>
