<svg width="80" height="81" viewBox="0 0 80 81" fill="none" xmlns="http://www.w3.org/2000/svg">
<path d="M27.0468 2.27515L36.238 7.61567L43.1657 -0.000537753L49.5268 9.46187L59.629 4.99574L61.2527 16.0575L72.0068 16.6486L69.201 27.095L79.3397 32.1156L72.7318 40.6793L79.7204 48.8743L69.6183 53.3405L73.1369 63.7625L61.7553 64.4388L60.2168 75.5128L50.3979 71.4396L45.0574 80.6309L37.1213 72.7557L27.6589 79.1167L24.1403 68.6947L13.3983 71.2659L13.9894 60.5118L3.54299 57.7059L8.56363 47.5672L-3.3021e-05 40.9594L8.19503 33.9708L2.78145 24.1885L13.5234 21.6173L12.8471 10.2356L22.9736 12.094L27.0468 2.27515Z" fill="black"/>
</svg>
