<svg width="74" height="74" viewBox="0 0 74 74" fill="none" xmlns="http://www.w3.org/2000/svg">
<path d="M31.9852 2.89918C34.3729 -0.966393 39.6271 -0.966393 42.0148 2.89918L52.0445 19.9496C52.5435 20.7575 53.2425 21.4565 54.0504 21.9555L71.1008 31.9852C74.9664 34.3729 74.9664 39.6271 71.1008 42.0148L54.0504 52.0445C53.2425 52.5435 52.5435 53.2425 52.0445 54.0504L42.0148 71.1008C39.6271 74.9664 34.3729 74.9664 31.9852 71.1008L21.9555 54.0504C21.4565 53.2425 20.7575 52.5435 19.9496 52.0445L2.89918 42.0148C-0.966393 39.6271 -0.966393 34.3729 2.89918 31.9852L19.9496 21.9555C20.7575 21.4565 21.4565 20.7575 21.9555 19.9496L31.9852 2.89918Z" fill="black"/>
</svg>
